<?xml version="1.0" encoding="UTF-8"?>
<svg id="Layer_1" data-name="Layer 1" xmlns="http://www.w3.org/2000/svg" viewBox="0 0 481.9 237.12">
  <defs>
    <style>
      .cls-1 {
        fill: #fff;
      }
    </style>
  </defs>
  <path class="cls-1" d="m45.01,105.82c-5.27,0-9.34-2.04-9.34-11.13v-50.28c3.23-4.79,8.26-8.14,12.69-8.14h.6c5.87.36,13.41,5.39,13.41,30.29v28.13c0,9.1-4.07,11.13-9.34,11.13v1.08h42.14v-1.08c-5.51,0-9.34-2.04-9.34-11.13v-29.33c0-6.7-1.2-11.97-3.11-16.4,2.39-6.1,9.7-12.69,15.56-12.69h.48c5.87.36,13.41,5.39,13.41,30.29v28.13c0,9.1-4.07,11.13-9.34,11.13v1.08h42.02v-1.08c-5.27,0-9.34-2.04-9.34-11.13v-29.33c0-25.26-16.16-32.32-29.57-32.32h-1.56c-9.58.36-17,4.19-22.38,14.24-5.87-11.13-16.64-14.24-26.1-14.24h-1.2c-7.66.36-13.89,2.87-19.03,8.98v-12.09h-1.08c-9.7,3.23-23.7,3.47-31.6,3.11v1.08c1.8,0,3.35.36,4.55,1.08,3.71,2.39,4.79,7.3,4.79,13.53v45.97c0,9.1-4.07,11.13-9.34,11.13v1.08h42.02v-1.08Z"/>
  <path class="cls-1" d="m189.48,107.14c21.07,0,35.55-15.44,35.55-37.23s-14.36-37.23-35.55-37.23-35.67,15.68-35.67,37.23c0,5.39.84,10.29,2.63,14.84,4.91,13.41,17,22.38,33.04,22.38Zm-12.57-47.4c.72-11.97,3.95-25.98,12.57-25.98,11.49,0,12.93,25.02,12.93,36.51s-1.44,35.79-12.93,35.79-13.05-24.18-13.05-35.79c0-2.87.12-6.34.48-10.53Z"/>
  <path class="cls-1" d="m239.15,45.85c7.06,19.15,15.2,41.9,19.39,53.51.84,2.39,1.56,4.19,2.04,5.51.36.84.6,1.44.72,2.04h3.71c2.63-7.06,5.27-14.36,7.9-21.67,4.55-12.57,10.41-28.73,15.56-42.85,1.92-5.51,3.35-8.26,8.86-8.26v-1.08h-17v1.08c3.95,0,6.22.36,6.82,1.08.72.72,1.08,1.56,1.08,2.51,0,1.08-.36,2.63-.96,4.43-5.51,15.08-11.61,32.2-12.93,35.43l-11.13-29.09c-1.32-3.47-1.32-5.87-1.32-6.82,0-3.11,1.08-7.54,8.26-7.54v-1.08h-42.14v1.08c6.22,0,8.86,5.99,11.13,11.73Z"/>
  <path class="cls-1" d="m346.53,105.82c-5.27,0-9.34-2.04-9.34-11.13V29.69h-1.08c-9.7,3.23-23.7,3.47-31.6,3.11v1.08c7.3,0,9.34,6.46,9.34,14.6v46.21c0,9.1-4.07,11.13-9.34,11.13v1.08h42.02v-1.08Z"/>
  <path class="cls-1" d="m323.42,25.14c6.22,0,11.37-5.75,11.37-12.57s-5.15-12.57-11.37-12.57-11.49,5.39-11.49,12.57,5.51,12.57,11.49,12.57Z"/>
  <path class="cls-1" d="m48.12,165.3c-4.91-6.11-11.85-11.61-18.91-16.76-17.36-12.93-11.37-20.95-5.87-21.55.36,0,.24-.12.6-.12,5.15,0,9.58,4.79,10.89,17.84,5.15-1.32,11.97-3.35,18.67-5.15-7.66-10.65-17.96-14-28.85-14.12-7.78.12-13.89,2.75-17.72,6.94-3.95,4.31-5.03,8.98-5.03,12.81,0,.96.12,2.51.36,4.43.6,3.95,4.19,10.77,10.77,16.04,7.3,5.99,12.93,8.74,18.31,13.17,9.22,8.02,9.34,19.75-.24,19.75-5.27-.36-10.65-3.95-11.97-17.84-5.15,1.32-12.45,3.35-19.15,5.15,7.66,10.53,18.31,13.89,31.36,13.89,5.27,0,9.7-1.08,13.41-3.11,7.18-4.07,9.46-10.05,9.46-15.56,0-1.08-.12-2.99-.6-5.63-.36-2.63-2.27-5.99-5.51-10.17Z"/>
  <path class="cls-1" d="m98.39,125.32c-21.19,0-35.67,15.68-35.67,37.23s14.01,37.23,35.67,37.23c15.92,0,27.77-8.62,32.92-22.15l-1.08-.6c-1.92,4.31-5.15,7.54-8.98,9.58-3.95,2.03-7.42,2.39-9.7,2.39-1.2,0-2.27,0-3.47-.24-11.49-1.56-18.08-12.81-20.35-25.26l45.25-10.17c-3.47-16.64-16.4-28.01-34.6-28.01Zm-10.89,37.23c-.6-3.23-.84-6.58-.84-9.82v-2.27c.24-11.73,3.83-22.15,9.94-23.82l.6-.12c.36,0,.84-.12,1.2-.12,10.06,0,12.21,18.31,12.81,30.76l-23.7,5.39Z"/>
  <path class="cls-1" d="m294.58,128.43c-4.55-1.92-9.22-2.75-13.89-2.75h-1.68c-7.66.36-13.77,2.75-18.91,8.86v-12.09h-1.08c-4.91,1.56-10.77,2.39-16.4,2.87-5.75.48-8.86.48-9.94.48-2.04,0-3.83-.12-5.39-.24v1.08c7.3,0,9.34,6.46,9.34,14.72v66.8c0,11.73-1.32,27.53-15.2,27.53-14.84,0-14.84-19.39-14.84-33.76v-40.22c0-17.36-10.05-36.03-35.91-36.03-9.7,0-21.79,4.43-29.45,10.17l7.66,20.59c4.67-18.55,12.45-28.97,21.07-29.45h.84c4.79,0,7.9,2.99,9.82,7.42,1.56,3.83,2.04,8.5,2.39,12.69,0,12.81-11.25,13.89-22.38,15.8-5.63.96-11.01,2.04-15.08,4.91-4.07,2.99-6.34,7.42-6.34,14.12v1.44c.36,7.06,2.87,11.49,7.18,13.89,4.31,2.51,9.58,2.87,13.89,2.87,1.2,0,2.63,0,3.95-.12,7.54-.48,13.53-2.51,19.15-10.29,0,25.38,9.46,47.4,38.07,47.4,23.46,0,38.67-15.44,38.67-47.28v-52.79c2.99-4.79,8.38-8.26,12.93-8.26h.36c4.43.36,9.82,3.35,12.09,15.44,5.15-1.32,13.53-3.71,20.23-5.63-2.87-4.91-6.58-8.38-11.13-10.17Zm-111.21,58.77c-2.75,5.39-7.78,8.74-12.45,8.74s-8.86-3.71-8.86-12.81c0-3.71.48-6.7,1.32-9.1,4.07-11.97,15.92-10.65,19.99-20.35v33.52Z"/>
  <path class="cls-1" d="m360.41,188.04c-.96,0-1.92-.12-2.87-.24-9.46-.96-15.44-7.3-18.79-15.56-3.35-8.14-3.47-15.44-3.47-19.51,0-2.51.12-5.03.48-7.42,1.32-9.82,4.91-18.79,11.73-18.79,7.66,0,10.89,11.37,12.21,22.38l19.63-4.07c-5.63-11.97-17-19.39-31.84-19.39-21.19,0-35.67,15.56-35.67,37.11s14.25,37.23,35.67,37.23c16.16,0,28.49-9.1,33.28-23.1h-1.2c-2.87,6.22-7.9,11.37-19.15,11.37Z"/>
  <path class="cls-1" d="m472.57,187.32v-29.33c0-25.26-16.16-32.32-29.57-32.32h-1.56c-7.66.36-13.89,2.87-19.03,8.98v-45.93c.61-1.2,1.19-2.44,1.68-3.73l-1.08-.6c-1.92,4.31-5.15,7.54-8.98,9.58-3.95,2.03-7.42,2.39-9.7,2.39-1.2,0-2.27,0-3.47-.24-11.49-1.56-18.08-12.81-20.35-25.26l45.25-10.17c-3.47-16.64-16.4-28.01-34.59-28.01-21.19,0-35.67,15.68-35.67,37.23s14.01,37.23,35.67,37.23c2.73,0,5.34-.27,7.82-.76.05.59.08,1.27.08,2.06v78.89c0,9.1-4.07,11.13-9.34,11.13v1.08h42.02v-1.08c-5.27,0-9.34-2.04-9.34-11.13v-50.28c3.23-4.79,8.26-8.14,12.69-8.14h.6c5.87.36,13.41,5.39,13.41,30.29v28.13c0,9.1-4.07,11.13-9.34,11.13v1.08h42.14v-1.08c-5.51,0-9.34-2.04-9.34-11.13Zm-93.13-127.23v-2.27c.24-11.73,3.83-22.15,9.94-23.82l.6-.12c.36,0,.84-.12,1.2-.12,10.05,0,12.21,18.31,12.81,30.76l-23.7,5.39c-.6-3.23-.84-6.58-.84-9.82Z"/>
</svg>